<svg width="57" height="57" viewBox="0 0 57 57" fill="none" xmlns="http://www.w3.org/2000/svg">
<path d="M46.0515 25.1038C49.804 27.4313 52.2502 31.3263 52.2502 35.6963C52.2502 39.4488 50.469 42.845 47.5715 45.22L46.9065 51.6325L40.3515 48.4263C39.544 48.545 38.7602 48.6163 37.8815 48.6163C32.4427 48.6163 27.7402 45.9088 25.2939 41.9188" stroke="#EF233C" stroke-opacity="0.9" stroke-width="2" stroke-linejoin="round"/>
<path d="M21.9212 41.6338C23.0612 41.8238 24.2488 41.895 25.46 41.895C36.9075 41.895 46.17 33.5825 46.17 23.3225C46.17 13.0625 36.9075 4.75 25.46 4.75C14.0125 4.75 4.75 13.0625 4.75 23.3225C4.75 28.7612 7.33874 33.6538 11.495 37.0263L12.065 48.9488L21.945 41.61L21.9212 41.6338Z" stroke="#EF233C" stroke-opacity="0.9" stroke-width="2" stroke-linejoin="round"/>
</svg>
