<svg width="24" height="20" viewBox="0 0 24 20" fill="none" xmlns="http://www.w3.org/2000/svg">
<path d="M20.3199 11.392V15.9091C20.3199 17.036 19.9134 17.9995 19.1004 18.7997C18.2874 19.5999 17.3085 20 16.1636 20H4.15634C3.01143 20 2.03247 19.5999 1.21948 18.7997C0.406494 17.9995 0 17.036 0 15.9091V4.09091C0 2.96402 0.406494 2.00047 1.21948 1.20028C2.03247 0.400095 3.01143 0 4.15634 0H16.1636C16.7697 0 17.3325 0.118371 17.8521 0.355114C17.9964 0.421402 18.083 0.530303 18.1118 0.681818C18.1407 0.842803 18.0974 0.980114 17.982 1.09375L17.2748 1.78977C17.1786 1.88447 17.0679 1.93182 16.9429 1.93182C16.914 1.93182 16.8707 1.92235 16.813 1.90341C16.5917 1.84659 16.3752 1.81818 16.1636 1.81818H4.15634C3.52135 1.81818 2.97775 2.04072 2.52556 2.4858C2.07336 2.93087 1.84726 3.46591 1.84726 4.09091V15.9091C1.84726 16.5341 2.07336 17.0691 2.52556 17.5142C2.97775 17.9593 3.52135 18.1818 4.15634 18.1818H16.1636C16.7986 18.1818 17.3422 17.9593 17.7943 17.5142C18.2465 17.0691 18.4726 16.5341 18.4726 15.9091V12.3011C18.4726 12.178 18.5159 12.0739 18.6025 11.9886L19.5262 11.0795C19.6224 10.9848 19.733 10.9375 19.8581 10.9375C19.9158 10.9375 19.9735 10.9517 20.0313 10.9801C20.2237 11.0559 20.3199 11.1932 20.3199 11.392ZM23.6536 4.44602L11.9062 16.0085C11.6753 16.2358 11.4011 16.3494 11.0836 16.3494C10.7661 16.3494 10.4919 16.2358 10.261 16.0085L4.05532 9.90057C3.82441 9.6733 3.70896 9.40341 3.70896 9.09091C3.70896 8.77841 3.82441 8.50852 4.05532 8.28125L5.64281 6.71875C5.87372 6.49148 6.14793 6.37784 6.46542 6.37784C6.78292 6.37784 7.05713 6.49148 7.28803 6.71875L11.0836 10.4545L20.4209 1.2642C20.6518 1.03693 20.926 0.923295 21.2435 0.923295C21.561 0.923295 21.8352 1.03693 22.0661 1.2642L23.6536 2.8267C23.8845 3.05398 24 3.32386 24 3.63636C24 3.94886 23.8845 4.21875 23.6536 4.44602Z" fill="#EF233C"/>
</svg>
