<svg width="56" height="56" viewBox="0 0 56 56" fill="none" xmlns="http://www.w3.org/2000/svg">
<path d="M8.89861 33.25C8.7593 33.25 8.62196 33.217 8.49786 33.1537L1.82861 29.7185C1.62299 29.6126 1.46762 29.4297 1.39646 29.2097C1.3253 28.9897 1.34414 28.7504 1.44886 28.5442L9.28361 13.069C9.33562 12.9662 9.40741 12.8747 9.49485 12.7998C9.58229 12.7248 9.68367 12.6679 9.79317 12.6322C9.90267 12.5965 10.0181 12.5828 10.133 12.5918C10.2478 12.6008 10.3597 12.6325 10.4622 12.6848L16.8069 15.9223C17.0106 16.026 17.1656 16.2052 17.2389 16.4217C17.3121 16.6382 17.2978 16.8748 17.1989 17.0808L9.68786 32.7503C9.63709 32.8557 9.56583 32.9499 9.47825 33.0274C9.39066 33.105 9.2885 33.1642 9.17774 33.2018C9.08782 33.2325 8.99361 33.2488 8.89861 33.25ZM3.40274 28.56L8.49874 31.185L15.252 17.0975L10.4482 14.6475L3.40274 28.56Z" fill="#EF233C" fill-opacity="0.9"/>
<path d="M17.9636 21.0734C17.8131 21.0734 17.6651 21.0345 17.534 20.9606L14.9913 19.5282C14.8911 19.4718 14.8031 19.3963 14.7321 19.3059C14.6612 19.2155 14.6087 19.112 14.5778 19.0014C14.5468 18.8907 14.5379 18.775 14.5517 18.6609C14.5654 18.5468 14.6015 18.4366 14.6579 18.3364C14.7143 18.2363 14.7898 18.1482 14.8802 18.0773C14.9706 18.0063 15.0741 17.9539 15.1847 17.9229C15.2954 17.892 15.4111 17.8831 15.5252 17.8969C15.6392 17.9106 15.7495 17.9467 15.8496 18.0031L17.9496 19.1852C18.7695 18.6882 20.544 17.6181 21.6798 16.9767C23.5339 15.9267 24.8394 16.0711 26.3383 17.4912C26.5024 17.6518 26.5968 17.8704 26.6012 18.0999C26.6055 18.3295 26.5195 18.5515 26.3616 18.7182C26.2038 18.8849 25.9867 18.9829 25.7573 18.991C25.5278 18.9992 25.3044 18.9168 25.1351 18.7617C24.2041 17.8797 23.7194 17.8342 22.5408 18.4992C21.0813 19.3243 18.4484 20.9291 18.4213 20.9492C18.2831 21.0319 18.1247 21.0749 17.9636 21.0734Z" fill="#EF233C" fill-opacity="0.9"/>
<path d="M40.9825 36.2977C40.3449 36.314 39.7159 36.148 39.1695 35.819C38.3645 35.2818 34.8225 31.808 34.1207 31.1177C33.966 30.953 33.881 30.7348 33.8835 30.5089C33.886 30.283 33.9758 30.0668 34.134 29.9055C34.2923 29.7443 34.5069 29.6506 34.7327 29.6439C34.9586 29.6373 35.1782 29.7183 35.3457 29.8699C36.9207 31.4248 39.6227 34.0192 40.1381 34.363C40.4703 34.5165 40.8377 34.5777 41.2016 34.5401C41.5656 34.5025 41.9128 34.3676 42.2066 34.1495C42.3442 34.0302 42.4539 33.8821 42.528 33.7158C42.6021 33.5494 42.6388 33.3688 42.6354 33.1867C42.6321 33.0046 42.5888 32.8255 42.5087 32.662C42.4285 32.4984 42.3135 32.3545 42.1716 32.2403C41.2773 31.234 37.5621 27.6597 36.7466 26.8757C33.901 25.8326 31.1416 24.5682 28.4936 23.0939L27.5731 23.6959C27.3664 24.6553 26.8151 25.5055 26.0235 26.0855C25.7456 26.3044 25.4231 26.4595 25.0786 26.54C24.7342 26.6204 24.3763 26.6242 24.0302 26.551C23.6103 26.4987 23.2059 26.3593 22.8429 26.1417C22.48 25.9242 22.1664 25.6332 21.9223 25.2875C21.457 24.2934 21.4048 23.1553 21.7771 22.1227C22.5235 19.1354 23.7345 18.3663 25.4101 17.3023L25.7785 17.0669C27.6247 15.8813 29.2093 15.2495 30.9488 16.0327C32.0303 16.52 35.869 18.0067 36.9592 18.4284L40.6132 17.2305C40.8321 17.164 41.0684 17.1858 41.2714 17.2913C41.4744 17.3968 41.628 17.5777 41.6992 17.7951C41.7705 18.0124 41.7538 18.2491 41.6527 18.4544C41.5516 18.6596 41.3741 18.8171 41.1583 18.893L37.2077 20.188C37.0164 20.2504 36.8096 20.2455 36.6215 20.174C36.4141 20.0935 31.5333 18.2158 30.234 17.6295C29.4543 17.2795 28.631 17.3154 26.727 18.5387L26.3507 18.7793C24.8221 19.7497 24.0547 20.2379 23.4772 22.547C23.1815 23.73 23.318 24.2095 23.4256 24.3845C23.5638 24.6155 23.8841 24.7092 24.3942 24.8369C24.5037 24.8554 24.616 24.8492 24.7228 24.819C24.8296 24.7887 24.9284 24.735 25.012 24.6619C25.2588 24.476 25.4649 24.2415 25.6176 23.9729C25.7704 23.7042 25.8665 23.4072 25.9001 23.1C25.9115 22.9681 25.9527 22.8405 26.0206 22.7268C26.0885 22.6132 26.1814 22.5164 26.2921 22.4438L27.9765 21.3422C28.1092 21.2558 28.2629 21.2071 28.4212 21.2013C28.5794 21.1954 28.7363 21.2326 28.8751 21.3089C28.9346 21.3413 34.8338 24.5674 37.4177 25.2464C37.5614 25.2848 37.6931 25.3585 37.801 25.4608C37.99 25.6419 42.4385 29.9014 43.4832 31.08C43.7727 31.3603 44.0023 31.6964 44.158 32.0679C44.3137 32.4395 44.3922 32.8389 44.389 33.2418C44.3857 33.6447 44.3006 34.0427 44.1389 34.4117C43.9772 34.7807 43.7422 35.1131 43.4482 35.3885C42.775 35.9993 41.8911 36.3252 40.9825 36.2977Z" fill="#EF233C" fill-opacity="0.9"/>
<path d="M42.8285 32.5342C42.628 32.534 42.4336 32.465 42.2779 32.3387C42.1222 32.2124 42.0146 32.0365 41.9731 31.8403C41.9316 31.6442 41.9587 31.4397 42.0499 31.2611C42.1411 31.0826 42.2908 30.9408 42.4741 30.8594L45.5436 29.4997C45.6491 29.4499 45.7635 29.4216 45.8801 29.4167C45.9967 29.4117 46.1131 29.4301 46.2224 29.4708C46.3318 29.5115 46.4319 29.5737 46.5168 29.6536C46.6018 29.7336 46.6699 29.8297 46.7172 29.9364C46.7645 30.0431 46.7899 30.1581 46.7921 30.2748C46.7942 30.3915 46.773 30.5074 46.7297 30.6157C46.6864 30.7241 46.6218 30.8226 46.5399 30.9057C46.4579 30.9887 46.3601 31.0545 46.2524 31.0992L43.182 32.4624C43.0704 32.5106 42.95 32.5351 42.8285 32.5342Z" fill="#EF233C" fill-opacity="0.9"/>
<path d="M46.8419 33.25C46.6675 33.2499 46.4972 33.1977 46.3526 33.1001C46.2081 33.0025 46.096 32.864 46.0308 32.7022L39.4263 16.317C39.3822 16.2077 39.3606 16.0906 39.3628 15.9728C39.365 15.855 39.391 15.7388 39.4392 15.6313C39.4874 15.5237 39.5568 15.427 39.6433 15.347C39.7298 15.267 39.8316 15.2052 39.9426 15.1655L47.0003 12.6402C47.2138 12.5639 47.4486 12.5734 47.6553 12.6667C47.8619 12.7601 48.0243 12.93 48.1081 13.1407L54.5831 29.393C54.6254 29.5004 54.6461 29.6152 54.6439 29.7307C54.6417 29.8462 54.6166 29.96 54.5702 30.0658C54.5237 30.1715 54.4568 30.267 54.3733 30.3468C54.2897 30.4266 54.1912 30.489 54.0834 30.5305L47.1552 33.1887C47.0554 33.2282 46.9492 33.2489 46.8419 33.25ZM41.3872 16.506L47.3293 31.2471L52.6266 29.2171L46.7947 14.5722L41.3872 16.506ZM37.0402 38.9515C36.3189 38.9731 35.6145 38.7307 35.0592 38.2699C33.8876 37.2286 30.8758 34.2186 30.7481 34.0909C30.5887 33.9258 30.5005 33.7048 30.5025 33.4754C30.5045 33.246 30.5965 33.0265 30.7587 32.8643C30.921 32.702 31.1404 32.61 31.3698 32.608C31.5993 32.606 31.8203 32.6942 31.9853 32.8536C32.0159 32.8842 35.0889 35.9555 36.2212 36.9661C36.4559 37.1091 36.7216 37.1933 36.9958 37.2116C37.27 37.2299 37.5446 37.1817 37.7962 37.0711C38.2071 36.931 38.5716 36.6807 38.8499 36.3475C39.1283 36.0144 39.3098 35.6112 39.3747 35.182C39.3942 35.0687 39.4359 34.9605 39.4973 34.8633C39.5586 34.7662 39.6386 34.6821 39.7324 34.6158C39.8263 34.5495 39.9323 34.5024 40.0444 34.4771C40.1565 34.4518 40.2725 34.4489 40.3858 34.4684C40.499 34.488 40.6073 34.5296 40.7044 34.591C40.8016 34.6524 40.8857 34.7323 40.9519 34.8262C41.0182 34.9201 41.0653 35.0261 41.0906 35.1382C41.1159 35.2503 41.1189 35.3662 41.0993 35.4795C40.9804 36.2146 40.6646 36.9037 40.1854 37.4737C39.7063 38.0438 39.0817 38.4734 38.3781 38.717C37.9484 38.8695 37.4961 38.9488 37.0402 38.9515Z" fill="#EF233C" fill-opacity="0.9"/>
<path d="M32.9683 41.0725C32.2485 41.1032 31.5451 40.8521 31.0074 40.3725L27.8994 37.2645L29.1375 36.0264L32.2455 39.1344C32.4379 39.2424 32.6507 39.3088 32.8703 39.3293C33.09 39.3498 33.3114 39.3239 33.5204 39.2534C33.9218 39.1548 34.2893 38.9502 34.5846 38.661C34.8798 38.3718 35.0919 38.0085 35.1987 37.6092C35.231 37.4979 35.2852 37.394 35.3581 37.3038C35.4309 37.2135 35.521 37.1386 35.623 37.0835C35.7251 37.0284 35.837 36.9941 35.9525 36.9826C36.0679 36.9712 36.1844 36.9828 36.2953 37.0168C36.4062 37.0507 36.5093 37.1064 36.5984 37.1806C36.6876 37.2548 36.7611 37.3459 36.8148 37.4488C36.8684 37.5516 36.9011 37.6641 36.9108 37.7797C36.9206 37.8952 36.9073 38.0116 36.8717 38.122C36.6282 38.97 36.1162 39.716 35.4125 40.2481C34.7088 40.7801 33.8505 41.0694 32.9683 41.0725Z" fill="#EF233C" fill-opacity="0.9"/>
<path d="M29.6324 43.4096C28.9171 43.4248 28.2175 43.1982 27.647 42.7665C26.8588 42.1354 26.0669 41.5089 25.2714 40.887C25.1789 40.8169 25.1013 40.7292 25.0431 40.6289C24.9849 40.5286 24.9471 40.4177 24.9321 40.3027C24.9172 40.1877 24.9252 40.0708 24.9557 39.9589C24.9863 39.8471 25.0388 39.7424 25.1102 39.651C25.1816 39.5595 25.2705 39.4832 25.3716 39.4265C25.4728 39.3697 25.5842 39.3336 25.6994 39.3203C25.8147 39.307 25.9314 39.3168 26.0428 39.349C26.1542 39.3812 26.2581 39.4353 26.3485 39.508C26.3485 39.508 27.4414 40.3611 28.7407 41.4006C29.0176 41.5654 29.3324 41.6555 29.6545 41.6621C29.9766 41.6687 30.2949 41.5915 30.5782 41.4382C30.8316 41.3293 31.0459 41.1462 31.1931 40.913C31.3402 40.6797 31.4132 40.4074 31.4025 40.1319C31.3954 39.8999 31.4808 39.6747 31.6398 39.5056C31.7988 39.3366 32.0184 39.2377 32.2504 39.2306C32.4816 39.2265 32.7053 39.313 32.8737 39.4716C33.0421 39.6301 33.1418 39.8483 33.1516 40.0794C33.1723 40.6889 33.0134 41.291 32.6948 41.811C32.3763 42.331 31.912 42.746 31.3596 43.0045C30.8226 43.2703 30.2316 43.4089 29.6324 43.4096Z" fill="#EF233C" fill-opacity="0.9"/>
<path d="M23.0754 43.0045C22.791 43.0035 22.5096 42.947 22.2468 42.8383C21.5333 42.4882 20.9451 41.9266 20.5624 41.23C19.9414 41.3505 19.2979 41.2538 18.7398 40.9562C18.2716 40.6493 17.8691 40.2524 17.5558 39.7885C17.2424 39.3246 17.0245 38.8031 16.9145 38.2542C16.8684 38.0307 16.9114 37.798 17.0344 37.6058C17.7458 36.4963 18.8185 34.7717 18.9787 34.412C19.1227 34.1251 19.3271 33.8727 19.5778 33.6722C19.8285 33.4716 20.1196 33.3276 20.4312 33.25C20.8549 33.139 21.2982 33.1241 21.7284 33.2064C22.1587 33.2888 22.5651 33.4663 22.9179 33.726C23.3089 33.9848 23.6229 34.3443 23.8267 34.7665C24.0306 35.1888 24.1169 35.6582 24.0764 36.1253C24.4926 36.1432 24.9001 36.2502 25.2714 36.439C25.6428 36.6279 25.9693 36.8941 26.2289 37.2199C26.4811 37.614 26.6421 38.0595 26.7001 38.5238C26.7581 38.9881 26.7116 39.4595 26.564 39.9035C26.1051 41.1845 25.1628 42.2348 23.939 42.8295C23.6658 42.9451 23.3721 43.0046 23.0754 43.0045ZM22.0359 40.2737C22.3107 40.7383 22.8015 41.405 23.2609 41.2134C24.0236 40.8162 24.6108 40.1488 24.9077 39.3418C24.9661 39.1632 24.9884 38.9748 24.9734 38.7874C24.9584 38.6001 24.9063 38.4177 24.8202 38.2507C24.6871 38.1203 24.529 38.0181 24.3556 37.9501C24.1821 37.8822 23.9967 37.8499 23.8104 37.8552L22.0359 40.2737ZM18.7188 38.2174C18.858 38.7036 19.1598 39.1273 19.5737 39.4179C19.7029 39.4842 19.8443 39.5233 19.9893 39.5328C20.1342 39.5423 20.2795 39.5219 20.4163 39.473L22.2844 36.2705C22.3587 36.0726 22.3634 35.8554 22.2979 35.6544C22.2324 35.4534 22.1005 35.2807 21.9239 35.1645C21.7896 35.0586 21.6345 34.982 21.4687 34.9397C21.3029 34.8973 21.1301 34.8902 20.9614 34.9187C20.8125 34.9432 20.6765 35.0183 20.5764 35.1313C20.3454 35.6432 19.2342 37.4072 18.7188 38.2174Z" fill="#EF233C" fill-opacity="0.9"/>
<path d="M16.3876 39.5841C16.1803 39.5847 15.974 39.5552 15.7751 39.4966C14.2763 39.046 13.6891 37.1053 13.627 36.8856C13.5956 36.7742 13.5867 36.6577 13.6006 36.5428C13.6146 36.4279 13.6512 36.3169 13.7084 36.2163C14.4521 34.9243 15.2747 33.6795 16.1715 32.4888C16.6217 31.9031 17.2741 31.5062 18.0012 31.3756C18.7283 31.2451 19.4779 31.3902 20.1038 31.7826C20.9298 32.3558 21.5353 33.6026 20.522 35.2319C20.4614 35.3295 20.3821 35.4143 20.2888 35.4814C20.1954 35.5484 20.0897 35.5964 19.9778 35.6226C19.8659 35.6488 19.7499 35.6527 19.6365 35.6341C19.523 35.6155 19.4144 35.5747 19.3167 35.5141C19.219 35.4535 19.1343 35.3742 19.0672 35.2808C19.0002 35.1874 18.9522 35.0818 18.926 34.9699C18.8998 34.8579 18.8959 34.7419 18.9145 34.6285C18.9331 34.5151 18.9739 34.4064 19.0345 34.3088C19.2594 33.9456 19.4545 33.4635 19.1054 33.2211C18.8502 33.0817 18.5534 33.0388 18.2692 33.1002C17.9851 33.1616 17.7324 33.3231 17.5575 33.5554C16.7889 34.5768 16.0775 35.6401 15.4269 36.7404C15.6185 37.198 15.9449 37.7221 16.2783 37.821C16.5731 37.9085 16.9783 37.6058 17.1979 37.4185C17.3736 37.2667 17.6023 37.191 17.8339 37.2079C18.0654 37.2248 18.2807 37.333 18.4325 37.5086C18.5843 37.6843 18.6601 37.9131 18.6432 38.1446C18.6263 38.3761 18.5181 38.5915 18.3424 38.7433C17.8163 39.2543 17.1204 39.5536 16.3876 39.5841Z" fill="#EF233C" fill-opacity="0.9"/>
<path d="M14.4671 37.52C14.3709 37.5198 14.2754 37.5039 14.1845 37.4727C14.0366 37.4228 10.5488 36.204 10.5488 33.4722C10.5487 33.3804 10.5629 33.2892 10.5908 33.2018C10.9074 32.3305 11.341 31.5063 11.8797 30.7518C12.2806 30.2728 12.8342 29.9465 13.4475 29.828C14.0608 29.7094 14.6962 29.8058 15.2467 30.1008C15.7649 30.3305 16.1783 30.7461 16.405 31.2656C16.6318 31.7851 16.6556 32.3708 16.4717 32.907C15.8995 34.7497 15.3123 36.8558 15.3062 36.8777C15.2548 37.0617 15.1446 37.2238 14.9925 37.3393C14.8404 37.4548 14.6546 37.5173 14.4636 37.5173L14.4671 37.52ZM12.3058 33.6078C12.3933 34.4268 13.2316 35.0498 13.9036 35.4235C14.132 34.6255 14.4706 33.4643 14.8031 32.3907C14.8336 32.3225 14.8492 32.2486 14.8489 32.1739C14.8485 32.0991 14.8322 32.0254 14.8011 31.9574C14.77 31.8895 14.7247 31.829 14.6683 31.78C14.6119 31.731 14.5457 31.6946 14.4741 31.6732C14.2933 31.5712 14.0864 31.5251 13.8794 31.5407C13.6724 31.5562 13.4747 31.6328 13.3112 31.7607C12.9055 32.3353 12.5681 32.9552 12.3058 33.6078Z" fill="#EF233C" fill-opacity="0.9"/>
<path d="M12.1422 32.8378C11.966 32.8376 11.794 32.7843 11.6487 32.6847L9.35358 31.1097C9.16201 30.9786 9.03037 30.7767 8.98763 30.5486C8.94488 30.3204 8.99453 30.0846 9.12564 29.893C9.25676 29.7014 9.45861 29.5698 9.68678 29.5271C9.91495 29.4843 10.1508 29.534 10.3423 29.6651L12.6375 31.2401C12.7921 31.3456 12.9087 31.4979 12.9704 31.6746C13.0321 31.8513 13.0354 32.0431 12.98 32.2219C12.9246 32.4007 12.8133 32.5569 12.6625 32.6678C12.5117 32.7787 12.3294 32.8383 12.1422 32.8378Z" fill="#EF233C" fill-opacity="0.9"/>
</svg>
