<svg width="372" height="389" viewBox="0 0 372 389" fill="none" xmlns="http://www.w3.org/2000/svg">
<rect x="1" y="1" width="36.6208" height="38.2209" stroke="#211F2B" stroke-opacity="0.56" stroke-width="0.6"/>
<rect x="38.0964" y="1" width="36.6208" height="38.2209" stroke="#211F2B" stroke-opacity="0.56" stroke-width="0.6"/>
<rect x="75.1926" y="1" width="36.6208" height="38.2209" stroke="#211F2B" stroke-opacity="0.56" stroke-width="0.6"/>
<rect x="112.289" y="1" width="36.6208" height="38.2209" stroke="#211F2B" stroke-opacity="0.56" stroke-width="0.6"/>
<rect x="149.385" y="1" width="36.6208" height="38.2209" stroke="#211F2B" stroke-opacity="0.56" stroke-width="0.6"/>
<rect x="186.482" y="1" width="36.6208" height="38.2209" stroke="#211F2B" stroke-opacity="0.56" stroke-width="0.6"/>
<rect x="223.578" y="1" width="36.6208" height="38.2209" stroke="#211F2B" stroke-opacity="0.56" stroke-width="0.6"/>
<rect x="260.674" y="1" width="36.6208" height="38.2209" stroke="#211F2B" stroke-opacity="0.56" stroke-width="0.6"/>
<rect x="297.771" y="1" width="36.6208" height="38.2209" stroke="#211F2B" stroke-opacity="0.56" stroke-width="0.6"/>
<rect x="334.867" y="1" width="36.6208" height="38.2209" stroke="#211F2B" stroke-opacity="0.56" stroke-width="0.6"/>
<rect x="1" y="39.7533" width="36.6208" height="38.2209" stroke="#211F2B" stroke-opacity="0.56" stroke-width="0.6"/>
<rect x="38.0963" y="39.7534" width="36.6208" height="38.2209" stroke="#211F2B" stroke-opacity="0.56" stroke-width="0.6"/>
<rect x="75.1927" y="39.7534" width="36.6208" height="38.2209" stroke="#211F2B" stroke-opacity="0.56" stroke-width="0.6"/>
<rect x="112.289" y="39.7534" width="36.6208" height="38.2209" stroke="#211F2B" stroke-opacity="0.56" stroke-width="0.6"/>
<rect x="149.385" y="39.7534" width="36.6208" height="38.2209" stroke="#211F2B" stroke-opacity="0.56" stroke-width="0.6"/>
<rect x="186.482" y="39.7534" width="36.6208" height="38.2209" stroke="#211F2B" stroke-opacity="0.56" stroke-width="0.6"/>
<rect x="223.578" y="39.7534" width="36.6208" height="38.2209" stroke="#211F2B" stroke-opacity="0.56" stroke-width="0.6"/>
<rect x="260.674" y="39.7534" width="36.6208" height="38.2209" stroke="#211F2B" stroke-opacity="0.56" stroke-width="0.6"/>
<rect x="297.771" y="39.7534" width="36.6208" height="38.2209" stroke="#211F2B" stroke-opacity="0.56" stroke-width="0.6"/>
<rect x="334.867" y="39.7534" width="36.6208" height="38.2209" stroke="#211F2B" stroke-opacity="0.56" stroke-width="0.6"/>
<rect x="1" y="78.5065" width="36.6208" height="38.2209" stroke="#211F2B" stroke-opacity="0.56" stroke-width="0.6"/>
<rect x="38.0963" y="78.5065" width="36.6208" height="38.2209" stroke="#211F2B" stroke-opacity="0.56" stroke-width="0.6"/>
<rect x="75.1927" y="78.5065" width="36.6208" height="38.2209" stroke="#211F2B" stroke-opacity="0.56" stroke-width="0.6"/>
<rect x="112.289" y="78.5065" width="36.6208" height="38.2209" stroke="#211F2B" stroke-opacity="0.56" stroke-width="0.6"/>
<rect x="149.385" y="78.5065" width="36.6208" height="38.2209" stroke="#211F2B" stroke-opacity="0.56" stroke-width="0.6"/>
<rect x="186.482" y="78.5065" width="36.6208" height="38.2209" stroke="#211F2B" stroke-opacity="0.56" stroke-width="0.6"/>
<rect x="223.578" y="78.5065" width="36.6208" height="38.2209" stroke="#211F2B" stroke-opacity="0.56" stroke-width="0.6"/>
<rect x="260.674" y="78.5065" width="36.6208" height="38.2209" stroke="#211F2B" stroke-opacity="0.56" stroke-width="0.6"/>
<rect x="297.771" y="78.5065" width="36.6208" height="38.2209" stroke="#211F2B" stroke-opacity="0.56" stroke-width="0.6"/>
<rect x="334.867" y="78.5065" width="36.6208" height="38.2209" stroke="#211F2B" stroke-opacity="0.56" stroke-width="0.6"/>
<rect x="1" y="117.26" width="36.6208" height="38.2209" stroke="#211F2B" stroke-opacity="0.56" stroke-width="0.6"/>
<rect x="38.0963" y="117.26" width="36.6208" height="38.2209" stroke="#211F2B" stroke-opacity="0.56" stroke-width="0.6"/>
<rect x="75.1927" y="117.26" width="36.6208" height="38.2209" stroke="#211F2B" stroke-opacity="0.56" stroke-width="0.6"/>
<rect x="112.289" y="117.26" width="36.6208" height="38.2209" stroke="#211F2B" stroke-opacity="0.56" stroke-width="0.6"/>
<rect x="149.385" y="117.26" width="36.6208" height="38.2209" stroke="#211F2B" stroke-opacity="0.56" stroke-width="0.6"/>
<rect x="186.482" y="117.26" width="36.6208" height="38.2209" stroke="#211F2B" stroke-opacity="0.56" stroke-width="0.6"/>
<rect x="223.578" y="117.26" width="36.6208" height="38.2209" stroke="#211F2B" stroke-opacity="0.56" stroke-width="0.6"/>
<rect x="260.674" y="117.26" width="36.6208" height="38.2209" stroke="#211F2B" stroke-opacity="0.56" stroke-width="0.6"/>
<rect x="297.771" y="117.26" width="36.6208" height="38.2209" stroke="#211F2B" stroke-opacity="0.56" stroke-width="0.6"/>
<rect x="334.867" y="117.26" width="36.6208" height="38.2209" stroke="#211F2B" stroke-opacity="0.56" stroke-width="0.6"/>
<rect x="1" y="156.013" width="36.6208" height="38.2209" stroke="#211F2B" stroke-opacity="0.56" stroke-width="0.6"/>
<rect x="38.0963" y="156.013" width="36.6208" height="38.2209" stroke="#211F2B" stroke-opacity="0.56" stroke-width="0.6"/>
<rect x="75.1927" y="156.013" width="36.6208" height="38.2209" stroke="#211F2B" stroke-opacity="0.56" stroke-width="0.6"/>
<rect x="112.289" y="156.013" width="36.6208" height="38.2209" stroke="#211F2B" stroke-opacity="0.56" stroke-width="0.6"/>
<rect x="149.385" y="156.013" width="36.6208" height="38.2209" stroke="#211F2B" stroke-opacity="0.56" stroke-width="0.6"/>
<rect x="186.482" y="156.013" width="36.6208" height="38.2209" stroke="#211F2B" stroke-opacity="0.56" stroke-width="0.6"/>
<rect x="223.578" y="156.013" width="36.6208" height="38.2209" stroke="#211F2B" stroke-opacity="0.56" stroke-width="0.6"/>
<rect x="260.674" y="156.013" width="36.6208" height="38.2209" stroke="#211F2B" stroke-opacity="0.56" stroke-width="0.6"/>
<rect x="297.771" y="156.013" width="36.6208" height="38.2209" stroke="#211F2B" stroke-opacity="0.56" stroke-width="0.6"/>
<rect x="334.867" y="156.013" width="36.6208" height="38.2209" stroke="#211F2B" stroke-opacity="0.56" stroke-width="0.6"/>
<rect x="1" y="194.766" width="36.6208" height="38.2209" stroke="#211F2B" stroke-opacity="0.56" stroke-width="0.6"/>
<rect x="38.0963" y="194.766" width="36.6208" height="38.2209" stroke="#211F2B" stroke-opacity="0.56" stroke-width="0.6"/>
<rect x="75.1927" y="194.766" width="36.6208" height="38.2209" stroke="#211F2B" stroke-opacity="0.56" stroke-width="0.6"/>
<rect x="112.289" y="194.766" width="36.6208" height="38.2209" stroke="#211F2B" stroke-opacity="0.56" stroke-width="0.6"/>
<rect x="149.385" y="194.766" width="36.6208" height="38.2209" stroke="#211F2B" stroke-opacity="0.56" stroke-width="0.6"/>
<rect x="186.482" y="194.766" width="36.6208" height="38.2209" stroke="#211F2B" stroke-opacity="0.56" stroke-width="0.6"/>
<rect x="223.578" y="194.766" width="36.6208" height="38.2209" stroke="#211F2B" stroke-opacity="0.56" stroke-width="0.6"/>
<rect x="260.674" y="194.766" width="36.6208" height="38.2209" stroke="#211F2B" stroke-opacity="0.56" stroke-width="0.6"/>
<rect x="297.771" y="194.766" width="36.6208" height="38.2209" stroke="#211F2B" stroke-opacity="0.56" stroke-width="0.6"/>
<rect x="334.867" y="194.766" width="36.6208" height="38.2209" stroke="#211F2B" stroke-opacity="0.56" stroke-width="0.6"/>
<rect x="1" y="233.519" width="36.6208" height="38.2209" stroke="#211F2B" stroke-opacity="0.56" stroke-width="0.6"/>
<rect x="38.0963" y="233.52" width="36.6208" height="38.2209" stroke="#211F2B" stroke-opacity="0.56" stroke-width="0.6"/>
<rect x="75.1927" y="233.52" width="36.6208" height="38.2209" stroke="#211F2B" stroke-opacity="0.56" stroke-width="0.6"/>
<rect x="112.289" y="233.52" width="36.6208" height="38.2209" stroke="#211F2B" stroke-opacity="0.56" stroke-width="0.6"/>
<rect x="149.385" y="233.52" width="36.6208" height="38.2209" stroke="#211F2B" stroke-opacity="0.56" stroke-width="0.6"/>
<rect x="186.482" y="233.52" width="36.6208" height="38.2209" stroke="#211F2B" stroke-opacity="0.56" stroke-width="0.6"/>
<rect x="223.578" y="233.52" width="36.6208" height="38.2209" stroke="#211F2B" stroke-opacity="0.56" stroke-width="0.6"/>
<rect x="260.674" y="233.52" width="36.6208" height="38.2209" stroke="#211F2B" stroke-opacity="0.56" stroke-width="0.6"/>
<rect x="297.771" y="233.52" width="36.6208" height="38.2209" stroke="#211F2B" stroke-opacity="0.56" stroke-width="0.6"/>
<rect x="334.867" y="233.52" width="36.6208" height="38.2209" stroke="#211F2B" stroke-opacity="0.56" stroke-width="0.6"/>
<rect x="1" y="272.273" width="36.6208" height="38.2209" stroke="#211F2B" stroke-opacity="0.56" stroke-width="0.6"/>
<rect x="38.0963" y="272.273" width="36.6208" height="38.2209" stroke="#211F2B" stroke-opacity="0.56" stroke-width="0.6"/>
<rect x="75.1927" y="272.273" width="36.6208" height="38.2209" stroke="#211F2B" stroke-opacity="0.56" stroke-width="0.6"/>
<rect x="112.289" y="272.273" width="36.6208" height="38.2209" stroke="#211F2B" stroke-opacity="0.56" stroke-width="0.6"/>
<rect x="149.385" y="272.273" width="36.6208" height="38.2209" stroke="#211F2B" stroke-opacity="0.56" stroke-width="0.6"/>
<rect x="186.482" y="272.273" width="36.6208" height="38.2209" stroke="#211F2B" stroke-opacity="0.56" stroke-width="0.6"/>
<rect x="223.578" y="272.273" width="36.6208" height="38.2209" stroke="#211F2B" stroke-opacity="0.56" stroke-width="0.6"/>
<rect x="260.674" y="272.273" width="36.6208" height="38.2209" stroke="#211F2B" stroke-opacity="0.56" stroke-width="0.6"/>
<rect x="297.771" y="272.273" width="36.6208" height="38.2209" stroke="#211F2B" stroke-opacity="0.56" stroke-width="0.6"/>
<rect x="334.867" y="272.273" width="36.6208" height="38.2209" stroke="#211F2B" stroke-opacity="0.56" stroke-width="0.6"/>
<rect x="1" y="311.026" width="36.6208" height="38.2209" stroke="#211F2B" stroke-opacity="0.56" stroke-width="0.6"/>
<rect x="38.0963" y="311.026" width="36.6208" height="38.2209" stroke="#211F2B" stroke-opacity="0.56" stroke-width="0.6"/>
<rect x="75.1927" y="311.026" width="36.6208" height="38.2209" stroke="#211F2B" stroke-opacity="0.56" stroke-width="0.6"/>
<rect x="112.289" y="311.026" width="36.6208" height="38.2209" stroke="#211F2B" stroke-opacity="0.56" stroke-width="0.6"/>
<rect x="149.385" y="311.026" width="36.6208" height="38.2209" stroke="#211F2B" stroke-opacity="0.56" stroke-width="0.6"/>
<rect x="186.482" y="311.026" width="36.6208" height="38.2209" stroke="#211F2B" stroke-opacity="0.56" stroke-width="0.6"/>
<rect x="223.578" y="311.026" width="36.6208" height="38.2209" stroke="#211F2B" stroke-opacity="0.56" stroke-width="0.6"/>
<rect x="260.674" y="311.026" width="36.6208" height="38.2209" stroke="#211F2B" stroke-opacity="0.56" stroke-width="0.6"/>
<rect x="297.771" y="311.026" width="36.6208" height="38.2209" stroke="#211F2B" stroke-opacity="0.56" stroke-width="0.6"/>
<rect x="334.867" y="311.026" width="36.6208" height="38.2209" stroke="#211F2B" stroke-opacity="0.56" stroke-width="0.6"/>
<rect x="1" y="349.779" width="36.6208" height="38.2209" stroke="#211F2B" stroke-opacity="0.56" stroke-width="0.6"/>
<rect x="38.0963" y="349.78" width="36.6208" height="38.2209" stroke="#211F2B" stroke-opacity="0.56" stroke-width="0.6"/>
<rect x="75.1929" y="349.78" width="36.6208" height="38.2209" stroke="#211F2B" stroke-opacity="0.56" stroke-width="0.6"/>
<rect x="112.289" y="349.78" width="36.6208" height="38.2209" stroke="#211F2B" stroke-opacity="0.56" stroke-width="0.6"/>
<rect x="149.385" y="349.78" width="36.6208" height="38.2209" stroke="#211F2B" stroke-opacity="0.56" stroke-width="0.6"/>
<rect x="186.482" y="349.78" width="36.6208" height="38.2209" stroke="#211F2B" stroke-opacity="0.56" stroke-width="0.6"/>
<rect x="223.578" y="349.78" width="36.6208" height="38.2209" stroke="#211F2B" stroke-opacity="0.56" stroke-width="0.6"/>
<rect x="260.675" y="349.78" width="36.6208" height="38.2209" stroke="#211F2B" stroke-opacity="0.56" stroke-width="0.6"/>
<rect x="297.771" y="349.78" width="36.6208" height="38.2209" stroke="#211F2B" stroke-opacity="0.56" stroke-width="0.6"/>
<rect x="334.867" y="349.78" width="36.6208" height="38.2209" stroke="#211F2B" stroke-opacity="0.56" stroke-width="0.6"/>
<rect x="334.867" y="349.78" width="36.6208" height="38.2209" stroke="#211F2B" stroke-opacity="0.56" stroke-width="0.6"/>
<rect x="334.867" y="349.78" width="36.6208" height="38.2209" stroke="#211F2B" stroke-opacity="0.56" stroke-width="0.6"/>
<rect x="334.867" y="349.78" width="36.6208" height="38.2209" stroke="#211F2B" stroke-opacity="0.56" stroke-width="0.6"/>
<rect x="334.867" y="349.78" width="36.6208" height="38.2209" stroke="#211F2B" stroke-opacity="0.56" stroke-width="0.6"/>
<rect x="334.867" y="349.78" width="36.6208" height="38.2209" stroke="#211F2B" stroke-opacity="0.56" stroke-width="0.6"/>
<rect x="334.867" y="349.78" width="36.6208" height="38.2209" stroke="#211F2B" stroke-opacity="0.56" stroke-width="0.6"/>
<rect x="334.867" y="349.78" width="36.6208" height="38.2209" stroke="#211F2B" stroke-opacity="0.56" stroke-width="0.6"/>
<rect x="334.867" y="349.78" width="36.6208" height="38.2209" stroke="#211F2B" stroke-opacity="0.56" stroke-width="0.6"/>
<rect x="334.867" y="349.78" width="36.6208" height="38.2209" stroke="#211F2B" stroke-opacity="0.56" stroke-width="0.6"/>
<rect x="334.867" y="349.78" width="36.6208" height="38.2209" stroke="#211F2B" stroke-opacity="0.56" stroke-width="0.6"/>
<rect x="334.867" y="349.78" width="36.6208" height="38.2209" stroke="#211F2B" stroke-opacity="0.56" stroke-width="0.6"/>
<rect x="334.867" y="349.78" width="36.6208" height="38.2209" stroke="#211F2B" stroke-opacity="0.56" stroke-width="0.6"/>
<rect x="334.867" y="349.78" width="36.6208" height="38.2209" stroke="#211F2B" stroke-opacity="0.56" stroke-width="0.6"/>
<rect x="334.867" y="349.78" width="36.6208" height="38.2209" stroke="#211F2B" stroke-opacity="0.56" stroke-width="0.6"/>
<rect x="334.867" y="349.78" width="36.6208" height="38.2209" stroke="#211F2B" stroke-opacity="0.56" stroke-width="0.6"/>
<rect x="334.867" y="349.78" width="36.6208" height="38.2209" stroke="#211F2B" stroke-opacity="0.56" stroke-width="0.6"/>
</svg>
