<svg width="56" height="56" viewBox="0 0 56 56" fill="none" xmlns="http://www.w3.org/2000/svg">
<g clip-path="url(#clip0_157_1355)">
<path d="M55.9635 20.454C55.9483 20.1782 55.8357 19.9168 55.6458 19.7162C55.4558 19.5157 55.2009 19.389 54.9264 19.3587C54.6518 19.3285 54.3755 19.3967 54.1464 19.5511C53.9174 19.7055 53.7506 19.9361 53.6757 20.202C53.209 21.8353 52.0774 22.7442 51.1184 22.1025C48.7983 18.865 45.6482 16.3129 41.9997 14.7152C41.718 14.5869 41.3968 14.5758 41.1069 14.6843C40.817 14.7929 40.5821 15.0121 40.4539 15.2938C40.3256 15.5756 40.3145 15.8967 40.423 16.1866C40.5316 16.4765 40.7508 16.7114 41.0325 16.8397C44.3548 18.2851 47.2155 20.6163 49.3019 23.5783C49.366 23.6757 49.4447 23.7627 49.5352 23.8362C49.9556 24.1823 50.4496 24.4277 50.9793 24.5537C51.5091 24.6796 52.0607 24.6828 52.5919 24.563C52.3408 24.9098 52.0045 25.1859 51.6154 25.3645C51.3398 25.4797 51.1188 25.6963 50.9981 25.9696C50.8775 26.2429 50.8662 26.552 50.9667 26.8333C51.4716 28.236 51.7305 29.7153 51.732 31.206C51.6639 33.4497 51.0873 35.6486 50.0457 37.637C49.0041 39.6254 47.5247 41.3514 45.719 42.6848C45.6887 42.7105 45.6584 42.7373 45.6292 42.7653C44.4969 43.8532 43.6158 45.175 43.0474 46.6387C42.5002 48.0456 42.1721 49.5282 42.0744 51.0347C42.0399 51.9129 42.068 52.7924 42.1584 53.6667H36.5817C36.9232 52.6374 37.0669 51.5527 37.0052 50.47C36.923 49.7872 36.7124 49.1262 36.3845 48.5217C36.2086 48.1817 35.9279 47.9073 35.584 47.7392C35.24 47.5711 34.8511 47.5182 34.4747 47.5883C32.0385 48.0107 29.5584 48.1209 27.0944 47.9162C26.9154 47.9022 26.7356 47.9295 26.5687 47.9958C26.4019 48.0622 26.2524 48.1658 26.1319 48.2988C25.4109 49.0806 24.8631 50.0057 24.5242 51.0137C24.2815 51.8786 24.1413 52.769 24.1065 53.6667H19.2252C19.3865 53.0591 19.4931 52.4383 19.5437 51.8117L19.5507 51.674C19.6441 50.4174 19.3851 49.1597 18.8029 48.0422C17.9232 46.4596 16.6199 45.1535 15.0392 44.2703C14.6053 43.9955 14.1891 43.6935 13.7932 43.3662C12.1482 41.9277 10.3025 40.2313 10.0015 39.9047C8.00349 37.703 5.29715 36.2709 2.35287 35.8575V27.3H3.01787C5.5367 27.3 7.21087 26.7715 8.13604 25.6853C8.46854 25.2933 9.0472 24.5117 9.38204 24.0193C10.0474 22.9716 10.8264 22.0005 11.7049 21.1237C11.8144 21.0124 11.9005 20.8802 11.958 20.735C12.0156 20.5898 12.0434 20.4346 12.0398 20.2784C12.0362 20.1223 12.0013 19.9685 11.9371 19.8261C11.873 19.6837 11.7809 19.5556 11.6664 19.4495C11.2231 19.036 10.8211 18.5804 10.4659 18.0892C9.98765 17.3869 9.60658 16.6232 9.33304 15.8188C9.77404 15.8387 10.2465 15.8725 10.6595 15.9355C12.1621 16.1278 13.5847 16.7228 14.7767 17.6575C14.9593 17.8159 15.1866 17.9136 15.4271 17.9372C15.6677 17.9609 15.9096 17.9092 16.1195 17.7893C17.6346 16.9181 19.2381 16.2106 20.9029 15.6788C21.1977 15.5849 21.4432 15.3777 21.5853 15.1028C21.7274 14.8279 21.7545 14.5078 21.6606 14.2129C21.5667 13.918 21.3595 13.6725 21.0846 13.5304C20.8097 13.3883 20.4896 13.3613 20.1947 13.4552C18.6217 13.9556 17.0985 14.6008 15.6447 15.3825C14.2439 14.4479 12.6474 13.8468 10.978 13.6255C9.89922 13.5016 8.81349 13.4478 7.7277 13.4645C7.55523 13.4681 7.38569 13.5098 7.2313 13.5867C7.07691 13.6637 6.9415 13.7739 6.83482 13.9095C6.72815 14.0451 6.65287 14.2026 6.61441 14.3708C6.57594 14.5389 6.57524 14.7135 6.61237 14.882C6.98932 16.5143 7.65379 18.0664 8.5747 19.4658C8.7917 19.7633 9.0192 20.0492 9.25604 20.3198C8.58135 21.0781 7.97065 21.8909 7.4302 22.75C7.15837 23.149 6.63104 23.8607 6.3592 24.1803C6.15504 24.4195 5.42587 24.9748 3.01787 24.9748H1.7427C1.28648 24.9755 0.849077 25.1567 0.526154 25.479C0.203232 25.8012 0.0210779 26.2383 0.019536 26.6945V36.0348C0.0184358 36.5557 0.208639 37.0589 0.554036 37.4488C0.899433 37.8387 1.37598 38.0883 1.8932 38.15C4.35376 38.4602 6.62121 39.6434 8.28304 41.4843C8.71587 41.951 10.7739 43.8258 12.2497 45.115C12.7221 45.5135 13.2211 45.8795 13.743 46.2105C14.962 46.8754 15.9814 47.8537 16.6959 49.0443C17.1134 49.8132 17.2956 50.688 17.2197 51.5597L17.2127 51.7125C17.1252 52.4217 16.986 53.1236 16.7962 53.8125C16.7342 54.0735 16.7321 54.3452 16.7901 54.6071C16.8481 54.8691 16.9646 55.1145 17.1309 55.325C17.2973 55.5354 17.5092 55.7055 17.7506 55.8224C17.9921 55.9393 18.2569 56 18.5252 56H24.3224C24.8454 56.002 25.3502 55.8076 25.7367 55.4552C26.1232 55.1028 26.3633 54.6182 26.4095 54.0972C26.4458 53.3152 26.5528 52.5382 26.7292 51.7755C26.9072 51.2392 27.173 50.7362 27.5155 50.2868C29.842 50.4346 32.1777 50.3227 34.4794 49.9532C34.5826 50.1907 34.6514 50.4417 34.6835 50.6987C34.705 51.5794 34.5609 52.4564 34.2589 53.284C34.1593 53.5966 34.135 53.9284 34.1879 54.2522C34.2407 54.576 34.3694 54.8828 34.5632 55.1475C34.7571 55.4122 35.0108 55.6274 35.3035 55.7756C35.5963 55.9237 35.9199 56.0006 36.248 56H42.2949C42.5977 56.0001 42.8973 55.9379 43.175 55.8171C43.4527 55.6964 43.7025 55.5197 43.9089 55.2982C44.1154 55.0767 44.274 54.815 44.3748 54.5295C44.4757 54.2439 44.5167 53.9407 44.4952 53.6387C44.4151 52.834 44.3836 52.0252 44.4007 51.2167C44.4824 49.9139 44.7682 48.6321 45.2477 47.418C45.6903 46.303 46.3666 45.2958 47.231 44.464C49.2975 42.9143 50.986 40.9165 52.1697 38.6206C53.3534 36.3248 54.0015 33.7906 54.0654 31.2083C54.0644 29.7753 53.8614 28.3496 53.4622 26.9733C54.3674 26.1638 55.0664 25.15 55.5015 24.0162C55.9365 22.8824 56.0949 21.6613 55.9635 20.454Z" fill="#EF233C" fill-opacity="0.9"/>
<path d="M31.5054 18.7413C33.3588 18.7413 35.1705 18.1918 36.7115 17.1621C38.2525 16.1324 39.4536 14.6689 40.1628 12.9567C40.872 11.2444 41.0576 9.36028 40.696 7.54254C40.3345 5.72481 39.442 4.05512 38.1315 2.74461C36.821 1.4341 35.1513 0.541628 33.3336 0.180059C31.5158 -0.18151 29.6317 0.00406016 27.9194 0.713304C26.2072 1.42255 24.7437 2.62361 23.714 4.16461C22.6843 5.70561 22.1348 7.51733 22.1348 9.37067C22.1375 11.8551 23.1257 14.2369 24.8824 15.9937C26.6392 17.7504 29.021 18.7386 31.5054 18.7413ZM31.5054 2.33334C32.8973 2.33334 34.2579 2.74607 35.4152 3.51934C36.5724 4.29261 37.4744 5.3917 38.0071 6.6776C38.5397 7.9635 38.6791 9.37848 38.4075 10.7436C38.136 12.1087 37.4658 13.3626 36.4816 14.3468C35.4974 15.331 34.2435 16.0012 32.8783 16.2728C31.5132 16.5443 30.0983 16.405 28.8124 15.8723C27.5265 15.3397 26.4274 14.4377 25.6541 13.2804C24.8808 12.1231 24.4681 10.7625 24.4681 9.37067C24.4703 7.50492 25.2124 5.7162 26.5317 4.39691C27.851 3.07762 29.6397 2.3355 31.5054 2.33334Z" fill="#EF233C" fill-opacity="0.9"/>
<path d="M30.5431 10.5373H32.2417C32.3723 10.5436 32.4954 10.5998 32.5856 10.6944C32.6758 10.789 32.7261 10.9147 32.7261 11.0454C32.7261 11.1761 32.6758 11.3018 32.5856 11.3964C32.4954 11.491 32.3723 11.5472 32.2417 11.5535H30.5431C30.465 11.5539 30.388 11.5361 30.318 11.5017C30.2479 11.4673 30.1868 11.4171 30.1394 11.3552C30.0479 11.229 29.9321 11.1225 29.7988 11.0419C29.6655 10.9612 29.5174 10.9081 29.3633 10.8856C29.2091 10.8632 29.052 10.8718 28.9012 10.911C28.7504 10.9502 28.6091 11.0193 28.4854 11.114C28.3617 11.2088 28.2583 11.3274 28.1812 11.4627C28.1041 11.5981 28.0549 11.7476 28.0365 11.9023C28.0181 12.057 28.0308 12.2138 28.074 12.3635C28.1172 12.5132 28.1899 12.6527 28.2879 12.7738C28.5206 13.0758 28.8125 13.327 29.1457 13.5122C29.4789 13.6974 29.8464 13.8125 30.2257 13.8507V14.7C30.2257 15.0094 30.3487 15.3062 30.5675 15.525C30.7862 15.7437 31.083 15.8667 31.3924 15.8667C31.7018 15.8667 31.9986 15.7437 32.2174 15.525C32.4362 15.3062 32.5591 15.0094 32.5591 14.7V13.8612C33.2814 13.7834 33.9462 13.4311 34.4162 12.8772C34.8863 12.3233 35.1257 11.6101 35.0849 10.8848C35.0442 10.1594 34.7265 9.47745 34.1974 8.97965C33.6683 8.48186 32.9682 8.20628 32.2417 8.20983H30.5431C30.4125 8.20357 30.2894 8.14731 30.1992 8.05271C30.1091 7.95811 30.0588 7.83243 30.0588 7.70174C30.0588 7.57105 30.1091 7.44538 30.1992 7.35078C30.2894 7.25618 30.4125 7.19992 30.5431 7.19366H32.2417C32.3218 7.1937 32.4007 7.21263 32.4721 7.24892C32.5434 7.2852 32.6052 7.33782 32.6524 7.40249C32.8368 7.65188 33.1128 7.8178 33.4195 7.86375C33.7262 7.9097 34.0387 7.83191 34.2881 7.64749C34.5375 7.46308 34.7034 7.18715 34.7493 6.8804C34.7953 6.57365 34.7175 6.26122 34.5331 6.01183C34.299 5.69983 34.0031 5.43944 33.6638 5.24694C33.3246 5.05443 32.9493 4.93394 32.5614 4.89299V4.04716C32.5614 3.73774 32.4385 3.44099 32.2197 3.2222C32.0009 3.00341 31.7042 2.88049 31.3947 2.88049C31.0853 2.88049 30.7886 3.00341 30.5698 3.2222C30.351 3.44099 30.2281 3.73774 30.2281 4.04716V4.88716C29.508 4.96756 28.846 5.32073 28.3783 5.87409C27.9105 6.42746 27.6725 7.13897 27.7131 7.8624C27.7538 8.58583 28.07 9.26622 28.5967 9.76373C29.1235 10.2612 29.8208 10.5381 30.5454 10.5373H30.5431ZM11.8857 23.9505V25.5943C11.8857 25.9037 12.0087 26.2005 12.2275 26.4193C12.4462 26.6381 12.743 26.761 13.0524 26.761C13.3618 26.761 13.6586 26.6381 13.8774 26.4193C14.0962 26.2005 14.2191 25.9037 14.2191 25.5943V23.9505C14.2191 23.6411 14.0962 23.3443 13.8774 23.1255C13.6586 22.9067 13.3618 22.7838 13.0524 22.7838C12.743 22.7838 12.4462 22.9067 12.2275 23.1255C12.0087 23.3443 11.8857 23.6411 11.8857 23.9505Z" fill="#EF233C" fill-opacity="0.9"/>
</g>
<defs>
<clipPath id="clip0_157_1355">
<rect width="56" height="56" fill="white"/>
</clipPath>
</defs>
</svg>
